<svg width="65" height="65" viewBox="0 0 65 65" fill="none" xmlns="http://www.w3.org/2000/svg">
<path d="M32.5 24.7609C30.9695 24.7615 29.4735 25.2159 28.2012 26.0666C26.9289 26.9173 25.9374 28.1262 25.3521 29.5404C24.7668 30.9546 24.614 32.5106 24.9129 34.0116C25.2118 35.5126 25.9491 36.8913 27.0316 37.9734C28.114 39.0554 29.493 39.7922 30.9942 40.0906C32.4953 40.3889 34.0512 40.2355 35.4652 39.6497C36.8791 39.0638 38.0876 38.0719 38.9379 36.7993C39.7881 35.5267 40.242 34.0305 40.242 32.5C40.2404 30.4474 39.4242 28.4794 37.9725 27.0283C36.5209 25.5772 34.5526 24.7617 32.5 24.7609V24.7609ZM50.5941 18.8123C50.2001 17.8138 49.6052 16.907 48.8462 16.148C48.0872 15.389 47.1804 14.7941 46.1819 14.4001C43.135 13.1973 35.8806 13.4672 32.5 13.4672C29.1194 13.4672 21.8722 13.1872 18.8166 14.4001C17.8182 14.7941 16.9113 15.389 16.1524 16.148C15.3934 16.907 14.7984 17.8138 14.4045 18.8123C13.2031 21.8592 13.4715 29.1209 13.4715 32.4985C13.4715 35.8762 13.2031 43.1292 14.4103 46.1863C14.8042 47.1847 15.3992 48.0916 16.1582 48.8505C16.9171 49.6095 17.824 50.2045 18.8224 50.5984C21.8693 51.8012 29.1238 51.5314 32.5058 51.5314C35.8878 51.5314 43.1321 51.8114 46.1877 50.5984C47.1862 50.2045 48.093 49.6095 48.852 48.8505C49.611 48.0916 50.2059 47.1847 50.5999 46.1863C51.8114 43.1394 51.5328 35.8777 51.5328 32.5C51.5328 29.1223 51.8114 21.8708 50.5999 18.8137L50.5941 18.8123ZM32.5 44.3973C30.1469 44.3973 27.8467 43.6996 25.8902 42.3923C23.9337 41.085 22.4088 39.2269 21.5083 37.0529C20.6078 34.879 20.3722 32.4868 20.8313 30.1789C21.2903 27.8711 22.4235 25.7512 24.0873 24.0873C25.7512 22.4235 27.8711 21.2903 30.1789 20.8313C32.4868 20.3722 34.879 20.6078 37.0529 21.5083C39.2269 22.4088 41.085 23.9337 42.3923 25.8902C43.6996 27.8467 44.3973 30.1469 44.3973 32.5C44.3992 34.0629 44.0928 35.6109 43.4956 37.0552C42.8984 38.4995 42.0221 39.8118 40.9169 40.9169C39.8118 42.0221 38.4995 42.8984 37.0552 43.4956C35.6109 44.0928 34.0629 44.3992 32.5 44.3973V44.3973ZM44.8877 22.8806C44.3384 22.8809 43.8014 22.7182 43.3445 22.4133C42.8876 22.1083 42.5315 21.6747 42.3211 21.1673C42.1107 20.6599 42.0555 20.1015 42.1624 19.5627C42.2694 19.0239 42.5338 18.529 42.9221 18.1404C43.3104 17.7519 43.8052 17.4873 44.344 17.38C44.8827 17.2728 45.4411 17.3277 45.9487 17.5378C46.4562 17.748 46.89 18.1039 47.1952 18.5606C47.5004 19.0173 47.6633 19.5543 47.6633 20.1036C47.6648 20.4683 47.5943 20.8298 47.4558 21.1673C47.3173 21.5048 47.1136 21.8116 46.8562 22.0701C46.5989 22.3286 46.2931 22.5338 45.9563 22.6739C45.6195 22.814 45.2583 22.8862 44.8935 22.8864L44.8877 22.8806ZM58.0357 0H6.96429C5.11724 0 3.34585 0.733735 2.03979 2.03979C0.733735 3.34585 0 5.11724 0 6.96429L0 58.0357C0 59.8828 0.733735 61.6542 2.03979 62.9602C3.34585 64.2663 5.11724 65 6.96429 65H58.0357C59.8828 65 61.6542 64.2663 62.9602 62.9602C64.2663 61.6542 65 59.8828 65 58.0357V6.96429C65 5.11724 64.2663 3.34585 62.9602 2.03979C61.6542 0.733735 59.8828 0 58.0357 0V0ZM55.5518 42.0759C55.3646 45.7945 54.5158 49.0895 51.8012 51.7969C49.0866 54.5042 45.7945 55.3704 42.0802 55.5474C38.2484 55.7636 26.7603 55.7636 22.9285 55.5474C19.2098 55.3603 15.9265 54.51 13.2075 51.7969C10.4885 49.0837 9.63393 45.7873 9.45692 42.0759C9.24074 38.2426 9.24074 26.753 9.45692 22.9241C9.64408 19.2055 10.4827 15.9105 13.2075 13.2031C15.9323 10.4958 19.2243 9.63973 22.9285 9.46272C26.7603 9.24654 38.2484 9.24654 42.0802 9.46272C45.7989 9.64989 49.0924 10.5001 51.8012 13.2133C54.51 15.9265 55.3748 19.2229 55.5518 22.9415C55.768 26.7603 55.768 38.2397 55.5518 42.0759Z" fill="#E0D2D2"/>
</svg>
