<svg width="65" height="65" viewBox="0 0 65 65" fill="none" xmlns="http://www.w3.org/2000/svg">
<path d="M32.5 13.1741C21.952 13.1741 13.3772 21.7489 13.3627 32.2969C13.3627 35.9096 14.3783 39.4353 16.2935 42.4676L16.7433 43.1931L14.8136 50.2444L22.0536 48.3438L22.75 48.7645C25.6808 50.5056 29.0469 51.4342 32.4855 51.4342H32.5C43.0335 51.4342 51.8404 42.8594 51.8404 32.3114C51.8404 27.2042 49.635 22.4018 46.0223 18.7891C42.3951 15.1618 37.6071 13.1741 32.5 13.1741ZM43.7444 40.5089C43.2656 41.8583 40.9732 43.077 39.8705 43.2366C38.0424 43.5123 36.6205 43.3672 32.9788 41.8002C27.2187 39.3047 23.4464 33.5011 23.1563 33.1239C22.8661 32.7466 20.8058 30.0045 20.8058 27.1752C20.8058 24.346 22.2857 22.9531 22.8225 22.3728C23.3449 21.7924 23.9687 21.6473 24.3605 21.6473C24.7377 21.6473 25.1295 21.6473 25.4632 21.6618C25.8114 21.6763 26.2902 21.5313 26.7545 22.6484C27.2333 23.7946 28.3795 26.6239 28.5246 26.9141C28.6696 27.2042 28.7712 27.5379 28.5681 27.9152C27.4654 30.1205 26.2902 30.0335 26.885 31.0491C29.1049 34.865 31.3248 36.1853 34.7054 37.8828C35.2857 38.173 35.6194 38.1295 35.9531 37.7377C36.2868 37.3605 37.3895 36.0547 37.7667 35.4888C38.144 34.9085 38.5357 35.01 39.058 35.1987C39.5804 35.3873 42.4096 36.7801 42.99 37.0703C43.5703 37.3605 43.9475 37.5056 44.0926 37.7377C44.2232 38.0134 44.2232 39.1741 43.7444 40.5089V40.5089ZM58.0357 0H6.96429C3.11942 0 0 3.11942 0 6.96429V58.0357C0 61.8806 3.11942 65 6.96429 65H58.0357C61.8806 65 65 61.8806 65 58.0357V6.96429C65 3.11942 61.8806 0 58.0357 0ZM32.4855 55.308C28.6261 55.308 24.8393 54.3359 21.4877 52.5078L9.28571 55.7143L12.5502 43.7879C10.5335 40.3058 9.47433 36.3449 9.47433 32.2824C9.48884 19.6016 19.8047 9.28571 32.4855 9.28571C38.6373 9.28571 44.4118 11.6797 48.7645 16.0324C53.1027 20.385 55.7143 26.1596 55.7143 32.3114C55.7143 44.9922 45.1663 55.308 32.4855 55.308Z" fill="#E0D2D2"/>
</svg>
